<?xml version="1.0" encoding="utf-8"?>
<!-- Generator: Adobe Illustrator 27.2.0, SVG Export Plug-In . SVG Version: 6.00 Build 0)  -->
<svg version="1.1" id="Layer_1" xmlns="http://www.w3.org/2000/svg" xmlns:xlink="http://www.w3.org/1999/xlink" x="0px" y="0px"
	 viewBox="0 0 192.5 86.8" style="enable-background:new 0 0 192.5 86.8;" xml:space="preserve">
<style type="text/css">
	.st0{fill:#F7931E;}
	.st1{fill:#293145;}
	.st2{enable-background:new    ;}
</style>
<g id="Group_1222" transform="translate(-361.41 -285)">
	<g id="Group_1220" transform="translate(361.41 287.608)">
		<g id="Group_1215" transform="translate(0.89 0)">
			<g id="Group_1214" transform="translate(0)">
				<path id="Path_8" class="st0" d="M62.6,46.1H43.7v-28c3.3,0.1,6.5,0.6,9.7,1.3c0.1,6,3,12.4,5.9,19
					C60.4,40.9,61.6,43.4,62.6,46.1z"/>
				<path id="Path_9" class="st0" d="M83.7,39.6c0,2.2-0.2,4.3-0.5,6.5H67.5c-1.3-3.3-2.7-6.5-4-9.5c-2.6-5.7-5-11.1-5.4-15.9
					C68.2,24,77.2,30.4,83.7,39C83.7,39.2,83.7,39.4,83.7,39.6z"/>
				<path id="Path_10" class="st0" d="M24.4,7.6c2.3,1.8,3.9,4.4,4.6,7.2c3.3-0.7,6.7-1.2,10.2-1.3V-2.6c-7.5,0.4-14.7,2.8-21,6.9
					C20.4,5,22.5,6.1,24.4,7.6z"/>
				<path id="Path_11" class="st0" d="M24.6,15.9c-0.5-1.9-1.6-3.6-3.1-4.9c-2.3-1.7-5-2.9-7.9-3.3C6.7,13.9,1.9,22,0,31
					C6.8,24,15.3,18.8,24.6,15.9z"/>
				<path id="Path_12" class="st0" d="M43.7,13.5c3.4,0.1,6.8,0.6,10.2,1.3c0.7-2.8,2.4-5.4,4.6-7.2c1.8-1.5,3.9-2.6,6.2-3.3
					c-6.3-4.1-13.5-6.5-21-6.9V13.5z"/>
				<path id="Path_13" class="st0" d="M69.3,7.8c-2.9,0.4-5.6,1.6-7.9,3.3c-1.6,1.2-2.6,2.9-3.1,4.9c9.3,2.9,17.8,8,24.5,15
					C81,22,76.2,13.8,69.3,7.8z"/>
			</g>
		</g>
		<path id="Path_14" class="st0" d="M0.9,48.3c1.8-2,8.8-9.1,18.2-9.2l1.1-2.5c2.6-5.7,5-11.1,5.4-15.9C15.5,24,6.5,30.4,0,39v0.7
			c0,1.7,0.1,3.3,0.3,5C0.4,45.9,0.7,47.1,0.9,48.3z"/>
		<g id="Group_1216" transform="translate(2.155 45.439)">
			<path id="Path_15" class="st1" d="M0,6.3C0,6.3,9.2-5,21-2.1s14,11,23.3,17.8s11.5,8.1,11.5,8.1c-11.5,0.9-22.8-3.9-29.9-13
				c0,0,10.5,30.8,43,9.2c0,0,5.7-4.2,7.8-6.1s3.9-0.3-0.1,5.8c-4.1,6.1-18.4,24.4-46.2,17.8S0,6.3,0,6.3z"/>
			<path id="Path_16" class="st1" d="M48.1,14.8c2.8-0.8,8.7-2.4,9.6-3.1c1.1-0.9-0.2-1-3.5,0c-2.8,0.6-5.6,1.1-8.4,1.4
				C46.4,13.5,47.2,14.1,48.1,14.8z"/>
			<path id="Path_17" class="st1" d="M61.7,12.9c-2.1,1.1-8.4,2.9-11.2,3.7c0.8,0.6,1.5,1.1,2.3,1.7c3.4-1.1,6.6-2.5,9.7-4.2
				C63.8,13.2,64.3,11.5,61.7,12.9z"/>
			<path id="Path_18" class="st1" d="M68.8,13c-1.2,1.3-12.3,6.7-13.2,7.1c1.1,0.8,2.3,1.4,3.5,2.1c3.8-2,7.4-4.3,10.8-6.9
				C72.9,12.7,70,11.7,68.8,13z"/>
		</g>
		<path id="Path_19" class="st0" d="M35.7,46.1h4.3v-28c-3.3,0.1-6.5,0.6-9.7,1.3c-0.1,6-3,12.4-5.9,19c-0.2,0.4-0.4,0.8-0.6,1.2
			C28.3,40.7,32.4,42.9,35.7,46.1z"/>
	</g>
	<g id="Group_1221" transform="translate(0.5 1.977)">
		<g class="st2">
			<path class="st1" d="M468.1,329.8c-5.8,0-9.9-2.9-10.3-7.6h3.4c0.3,2.8,2.7,4.8,6.9,4.8c3.7,0,5.7-2,5.7-4.4
				c0-6.3-15.4-2.6-15.4-12.3c0-3.8,3.6-7,9-7c5.5,0,9.1,2.9,9.4,7.8h-3.3c-0.2-2.9-2.3-5-6.2-5c-3.4,0-5.6,1.8-5.6,4.1
				c0,7,15.2,3.2,15.3,12.3C477,326.7,473.4,329.8,468.1,329.8z"/>
			<path class="st1" d="M494,303.4c5.2,0,8.7,2.8,10.2,6v-5.6h3.3v25.7h-3.3v-5.7c-1.5,3.3-5.1,6.1-10.2,6.1
				c-7,0-12.2-5.2-12.2-13.3C481.7,308.5,486.9,303.4,494,303.4z M494.6,306.2c-5.4,0-9.5,3.8-9.5,10.3c0,6.5,4.1,10.4,9.5,10.4
				c5.3,0,9.5-3.9,9.5-10.3S499.9,306.2,494.6,306.2z"/>
			<path class="st1" d="M515.8,306.5h-3.6v-2.8h3.6V302c0-5.5,2.6-8.1,9.1-8.1v2.8c-4.4,0-5.8,1.6-5.8,5.3v1.8h6v2.8h-6v22.9h-3.3
				V306.5z"/>
			<path class="st1" d="M541.3,329.8c-7.3,0-12.6-5.1-12.6-13.2c0-8.2,5.2-13.2,12.6-13.2c7.5,0,12.1,5.4,12.1,11.9
				c0,1,0,1.7-0.1,2.6h-21.3c0.3,6,4.5,9.2,9.3,9.2c4.4,0,7.3-2.3,8.3-5.7h3.5C551.9,326.1,547.8,329.8,541.3,329.8z M532.1,315.2
				h18c0.1-6-4.2-9-8.9-9C536.5,306.2,532.4,309.2,532.1,315.2z"/>
		</g>
		<g class="st2">
			<path class="st1" d="M467.7,354.4l-4.2-7.7h-1.2v7.7h-5v-20.4h8.3c1.6,0,3,0.3,4.1,0.8c1.1,0.6,2,1.3,2.5,2.3
				c0.6,1,0.8,2.1,0.8,3.3c0,1.4-0.4,2.6-1.1,3.6c-0.8,1.1-1.9,1.8-3.4,2.3l4.7,8.1H467.7z M462.3,343.2h3.1c0.9,0,1.6-0.2,2-0.7
				c0.5-0.4,0.7-1.1,0.7-1.9c0-0.8-0.2-1.4-0.7-1.8c-0.5-0.4-1.1-0.7-2-0.7h-3.1V343.2z"/>
			<path class="st1" d="M481.2,338v4.1h6.6v3.8h-6.6v4.5h7.5v4h-12.5v-20.4h12.5v4H481.2z"/>
			<path class="st1" d="M504.6,350.8H497l-1.2,3.6h-5.2l7.4-20.4h5.7l7.4,20.4h-5.2L504.6,350.8z M503.3,347l-2.5-7.5l-2.5,7.5
				H503.3z"/>
			<path class="st1" d="M513.7,338.8c0.9-1.6,2.1-2.8,3.6-3.7c1.6-0.9,3.3-1.3,5.3-1.3c2.4,0,4.5,0.6,6.2,1.9c1.7,1.3,2.9,3,3.5,5.2
				h-5.5c-0.4-0.9-1-1.5-1.7-1.9c-0.7-0.4-1.6-0.7-2.5-0.7c-1.5,0-2.8,0.5-3.7,1.6s-1.4,2.5-1.4,4.3c0,1.8,0.5,3.2,1.4,4.3
				c0.9,1.1,2.2,1.6,3.7,1.6c0.9,0,1.8-0.2,2.5-0.7c0.7-0.4,1.3-1.1,1.7-1.9h5.5c-0.6,2.2-1.7,3.9-3.5,5.2c-1.7,1.3-3.8,1.9-6.2,1.9
				c-2,0-3.7-0.4-5.3-1.3c-1.6-0.9-2.8-2.1-3.6-3.7c-0.9-1.6-1.3-3.4-1.3-5.4S512.9,340.4,513.7,338.8z"/>
			<path class="st1" d="M553,334.1v20.4h-5V346h-7.7v8.4h-5v-20.4h5v8h7.7v-8H553z"/>
		</g>
	</g>
</g>
</svg>
