<?xml version="1.0" encoding="utf-8"?>
<!-- Generator: Adobe Illustrator 27.2.0, SVG Export Plug-In . SVG Version: 6.00 Build 0)  -->
<svg version="1.1" id="Layer_1" xmlns="http://www.w3.org/2000/svg" xmlns:xlink="http://www.w3.org/1999/xlink" x="0px" y="0px"
	 viewBox="0 0 280.8 48.8" style="enable-background:new 0 0 280.8 48.8;" xml:space="preserve">
<style type="text/css">
	.st0{fill:#F5E6D9;}
	.st1{fill:#E9AA73;}
	.st2{enable-background:new    ;}
	.st3{fill:#FFFFFF;}
</style>
<g id="Group_1242" transform="translate(-376.936 -29)">
	<g id="Group_1216" transform="translate(378.147 62.651)">
		<path id="Path_15" class="st0" d="M0-3.1c0,0,5.2-6.4,11.8-4.7s7.9,6.2,13.1,10s6.5,4.6,6.5,4.6c-6.5,0.5-12.8-2.2-16.8-7.3
			c0,0,5.9,17.3,24.2,5.2c0,0,3.2-2.3,4.4-3.4s2.2-0.2-0.1,3.2c-2.3,3.4-10.3,13.7-26,10S0-3.1,0-3.1z"/>
		<path id="Path_16" class="st0" d="M27,1.7c1.8-0.4,3.6-1,5.4-1.8c0.6-0.5-0.1-0.6-1.9,0c-1.6,0.4-3.1,0.6-4.7,0.8
			C26.1,1,26.5,1.3,27,1.7z"/>
		<path id="Path_17" class="st0" d="M34.7,0.6c-2,0.8-4.1,1.5-6.3,2.1c0.4,0.3,0.8,0.6,1.3,0.9c1.9-0.6,3.7-1.4,5.5-2.3
			C35.9,0.8,36.2-0.2,34.7,0.6z"/>
		<path id="Path_18" class="st0" d="M38.7,0.7c-0.7,0.7-6.9,3.7-7.4,4c0.6,0.4,1.3,0.8,2,1.2c2.1-1.1,4.1-2.4,6.1-3.9
			C41,0.5,39.3,0,38.7,0.7z"/>
	</g>
	<g id="Group_1241" transform="translate(13252 7510)">
		<g id="Group_1215" transform="translate(-12874.564 -7472.892)">
			<g id="Group_1214" transform="translate(0)">
				<path id="Path_8" class="st1" d="M35.2,19.3H24.6V3.5c1.8,0.1,3.7,0.3,5.5,0.7c0.1,3.4,1.7,7,3.3,10.7
					C34,16.4,34.6,17.8,35.2,19.3z"/>
				<path id="Path_9" class="st1" d="M47.1,15.6c0,1.2-0.1,2.4-0.3,3.6h-8.8c-0.7-1.9-1.5-3.7-2.3-5.3c-1.4-3.2-2.8-6.2-3.1-8.9
					c5.8,1.9,10.8,5.5,14.5,10.3C47.1,15.4,47.1,15.5,47.1,15.6z"/>
				<path id="Path_10" class="st1" d="M13.7-2.4c1.3,1,2.2,2.5,2.6,4.1C18.2,1.3,20.1,1,22,1v-9.1c-4.2,0.2-8.3,1.6-11.8,3.9
					C11.5-3.8,12.7-3.2,13.7-2.4z"/>
				<path id="Path_11" class="st1" d="M13.8,2.3c-0.3-1.1-0.9-2-1.7-2.7c-1.3-1-2.8-1.6-4.5-1.8C3.7,1.1,1.1,5.7,0,10.8
					C3.8,6.9,8.6,3.9,13.8,2.3z"/>
				<path id="Path_12" class="st1" d="M24.6,1c1.9,0.1,3.8,0.3,5.7,0.7c0.4-1.6,1.3-3,2.6-4.1c1-0.8,2.2-1.4,3.5-1.8
					c-3.5-2.3-7.6-3.7-11.8-3.9V1z"/>
				<path id="Path_13" class="st1" d="M39-2.3c-1.6,0.2-3.1,0.9-4.5,1.8c-0.9,0.7-1.5,1.7-1.7,2.7c5.2,1.6,10,4.5,13.8,8.5
					C45.5,5.7,42.8,1.1,39-2.3z"/>
			</g>
		</g>
		<path id="Path_14" class="st1" d="M-12874.5-7452.4c1-1.1,5-5.1,10.2-5.2l0.6-1.4c1.4-3.2,2.8-6.2,3.1-8.9
			c-5.8,1.9-10.8,5.5-14.5,10.3v0.4c0,0.9,0.1,1.9,0.2,2.8C-12874.8-7453.7-12874.7-7453.1-12874.5-7452.4z"/>
		<path id="Path_19" class="st1" d="M-12855-7453.6h2.4v-15.7c-1.8,0.1-3.7,0.3-5.5,0.7c-0.1,3.4-1.7,7-3.3,10.7
			c-0.1,0.2-0.2,0.5-0.3,0.7C-12859.2-7456.7-12856.8-7455.4-12855-7453.6z"/>
	</g>
	<g class="st2">
		<path class="st3" d="M444.3,69.3c-5.7,0-9.7-2.9-10.1-7.5h3.3c0.3,2.8,2.7,4.7,6.8,4.7c3.6,0,5.6-1.9,5.6-4.3
			c0-6.2-15.1-2.6-15.1-12c0-3.7,3.5-6.8,8.8-6.8c5.4,0,8.9,2.9,9.2,7.7h-3.2c-0.2-2.8-2.3-4.9-6.1-4.9c-3.4,0-5.5,1.8-5.5,4
			c0,6.8,14.9,3.2,15,12.1C453.1,66.3,449.5,69.3,444.3,69.3z"/>
		<path class="st3" d="M469.7,43.4c5.1,0,8.5,2.7,9.9,5.9v-5.5h3.2v25.1h-3.2v-5.6c-1.5,3.2-5,5.9-10,5.9c-6.9,0-12-5.1-12-13
			S462.8,43.4,469.7,43.4z M470.3,46.2c-5.3,0-9.3,3.7-9.3,10.1c0,6.3,4,10.2,9.3,10.2c5.2,0,9.3-3.9,9.3-10.1
			S475.4,46.2,470.3,46.2z"/>
		<path class="st3" d="M491,46.5h-3.5v-2.7h3.5V42c0-5.4,2.5-8,8.9-8v2.8c-4.3,0-5.7,1.6-5.7,5.2v1.7h5.8v2.7h-5.8v22.4H491V46.5z"
			/>
		<path class="st3" d="M516,69.3c-7.1,0-12.3-5-12.3-12.9c0-8,5.1-12.9,12.3-12.9c7.4,0,11.9,5.2,11.9,11.6c0,1,0,1.7-0.1,2.5h-20.8
			c0.3,5.9,4.4,9,9.1,9c4.3,0,7.2-2.3,8.1-5.6h3.4C526.3,65.7,522.3,69.3,516,69.3z M506.9,55h17.7c0.1-5.8-4.1-8.8-8.7-8.8
			C511.3,46.2,507.3,49.1,506.9,55z"/>
	</g>
	<g class="st2">
		<path class="st3" d="M546,68.9l-5.5-10.1h-1.6v10.1h-6.5V42.2h10.9c2.1,0,3.9,0.4,5.4,1.1c1.5,0.7,2.6,1.7,3.3,3s1.1,2.7,1.1,4.3
			c0,1.8-0.5,3.4-1.5,4.8c-1,1.4-2.5,2.4-4.4,3l6.2,10.6H546z M538.9,54.2h4c1.2,0,2.1-0.3,2.7-0.9c0.6-0.6,0.9-1.4,0.9-2.5
			c0-1-0.3-1.8-0.9-2.4c-0.6-0.6-1.5-0.9-2.7-0.9h-4V54.2z"/>
		<path class="st3" d="M563.6,47.4v5.4h8.7v5h-8.7v5.9h9.8v5.2h-16.3V42.2h16.3v5.2H563.6z"/>
		<path class="st3" d="M594.3,64.2h-10l-1.6,4.7h-6.8l9.7-26.7h7.5l9.7,26.7h-6.9L594.3,64.2z M592.6,59.2l-3.3-9.8l-3.3,9.8H592.6z
			"/>
		<path class="st3" d="M606.3,48.5c1.1-2.1,2.7-3.7,4.8-4.8c2-1.2,4.4-1.7,6.9-1.7c3.2,0,5.9,0.8,8.1,2.5s3.8,4,4.5,6.8h-7.1
			c-0.5-1.1-1.3-2-2.3-2.5c-1-0.6-2.1-0.9-3.3-0.9c-2,0-3.6,0.7-4.9,2.1c-1.2,1.4-1.9,3.3-1.9,5.6c0,2.3,0.6,4.2,1.9,5.6
			c1.2,1.4,2.9,2.1,4.9,2.1c1.2,0,2.3-0.3,3.3-0.9c1-0.6,1.7-1.4,2.3-2.5h7.1c-0.8,2.9-2.3,5.2-4.5,6.8s-5,2.5-8.1,2.5
			c-2.6,0-4.9-0.6-6.9-1.7c-2-1.2-3.6-2.8-4.8-4.8c-1.1-2.1-1.7-4.4-1.7-7S605.2,50.5,606.3,48.5z"/>
		<path class="st3" d="M657.8,42.2v26.7h-6.5v-11h-10.1v11h-6.5V42.2h6.5v10.5h10.1V42.2H657.8z"/>
	</g>
</g>
</svg>
