<?xml version="1.0" encoding="utf-8"?>
<!-- Generator: Adobe Illustrator 26.5.0, SVG Export Plug-In . SVG Version: 6.00 Build 0)  -->
<svg version="1.1" id="Layer_1" xmlns="http://www.w3.org/2000/svg" xmlns:xlink="http://www.w3.org/1999/xlink" x="0px" y="0px"
	 viewBox="0 0 448 512" style="enable-background:new 0 0 448 512;" xml:space="preserve">
<style type="text/css">
	.st0{fill:#FFFFFF;}
</style>
<path class="st0" d="M301.1,34.8C312.6,40,320,51.4,320,64v384c0,12.6-7.4,24-18.9,29.2s-25,3.1-34.4-5.3L131.8,352H64
	c-35.3,0-64-28.7-64-64v-64c0-35.3,28.7-64,64-64h67.8L266.7,40.1C276.1,31.7,289.6,29.7,301.1,34.8z M412.6,181.5
	c21.5,17.6,35.4,44.4,35.4,74.5s-13.9,56.9-35.4,74.5c-10.3,8.4-25.4,6.8-33.8-3.5s-6.8-25.4,3.5-33.8C393.1,284.4,400,271,400,256
	s-6.9-28.4-17.7-37.3c-10.3-8.4-11.8-23.5-3.5-33.8s23.5-11.8,33.8-3.5L412.6,181.5z"/>
</svg>
