<?xml version="1.0" encoding="utf-8"?>
<!-- Generator: Adobe Illustrator 27.2.0, SVG Export Plug-In . SVG Version: 6.00 Build 0)  -->
<svg version="1.1" id="Layer_1" xmlns="http://www.w3.org/2000/svg" xmlns:xlink="http://www.w3.org/1999/xlink" x="0px" y="0px"
	 viewBox="0 0 199.7 150.8" style="enable-background:new 0 0 199.7 150.8;" xml:space="preserve">
<style type="text/css">
	.st0{fill:#58CED6;}
	.st1{fill:#449197;}
</style>
<g id="Group_1389" transform="translate(-175 -203.5)">
	<g id="Group_1389-2" transform="translate(248.372 203.5)">
		<path id="Path_67" class="st0" d="M48.8,89.7l-6.8-6.8C16.6,60.5,0,45.4,0,26.8C-0.2,12.2,11.5,0.2,26.1,0c0.2,0,0.5,0,0.7,0
			c8.5,0.1,16.5,3.8,22,10.2C54.3,3.8,62.3,0.1,70.7,0c14.6-0.2,26.6,11.5,26.8,26.1c0,0.2,0,0.5,0,0.7c0,18.6-16.6,33.7-41.9,56.1
			L48.8,89.7z"/>
	</g>
	<g id="Group_1390" transform="translate(175 281.289)">
		<path id="Path_68" class="st1" d="M199.7,10.8c-1.8,2-4,3.7-6,5.4c-2.4,2.1-4.8,4.2-7.3,6.3c-4.6,3.8-9.3,7.5-13.9,11.4
			c-1-2.3-2.7-4.3-4.9-5.6c-3.2-2-6.8-3.2-10.6-3.6c2.3-3,6.2-4.2,9.5-5.7c3.9-1.7,7-4.4,10.4-7c3.3-2.6,6.9-4.9,11.1-5.2
			C192.2,6.4,197.1,7.5,199.7,10.8z"/>
		<path id="Path_69" class="st1" d="M194.8,2.7c-0.4,1-1,1.9-1.6,2.7C192,5.2,190.9,5,189.7,5c-4.7-0.3-8.9,2-12.6,4.7
			c-3.7,2.7-7,5.9-11.2,7.7c-4,1.7-8.1,3.2-10.7,6.9v0c-1.2-0.1-2.5-0.2-3.6-0.3c-0.4,0-0.8,0-1.2,0c2.9-2.9,6.2-5.4,9.8-7.4
			c3.8-2.3,7.5-4.9,11.1-7.7c3.5-2.8,7.2-5.8,11.4-7.4C186.5,0.1,191.7-0.4,194.8,2.7z"/>
		<path id="Path_70" class="st1" d="M180.7,0.5c-3.3,1.6-6.3,3.6-9,6c-1.9,1.5-3.6,3-5.5,4.3c-2,1.4-4.1,2.7-6.2,4
			c-4.2,2.6-8.5,5.3-11.6,9.2c-3.1,0-6.2,0.2-9.3,0.5c2.8-2.6,5.9-5.1,9.1-7.2c3.5-2.6,6.9-5.5,10-8.6c3.2-2.9,6.5-5.8,10.6-7.4
			C172.5-0.1,176.7-0.4,180.7,0.5z"/>
		<path id="Path_71" class="st1" d="M129,43.2c-0.2,0-0.4,0-0.5-0.1c-1.1-0.1-2.2-0.2-3.3-0.2l-2.8-0.1c0,0-0.4,0-0.4,0
			c-1.5,0-3,0-4.5,0l-1.6,0.1c-1.4,0.1-2.7,0.2-4.1,0.4c-6.2,0.9-12.1,2.8-17.7,5.5c-1,0.5-1.8-1-0.8-1.4c6.2-3.1,12.9-5.1,19.8-5.9
			c5.3-0.5,10.6-0.5,15.9,0c0.1,0,0.2,0,0.3,0c0.8,0.1,1.5,0.1,2.3,0.2c5.2,0.6,10.3,1.6,15.5,2c5.3,0.5,10.8,0.6,15.8-1.2
			c3.9-1.3,9.7-3.3,8.4-8.3c-1.2-4.8-6.6-5.9-11-7.1c-5.9-1.7-12-1.8-18-1.6s-12-0.9-18-1.1c-5.6-0.1-11.4-2.4-16.4-5.3
			c-0.1,0-0.1,0-0.2-0.1c0,0,0,0-0.1,0l0,0l0,0c-8.2-5.6-17-12.9-27.4-13.3c-5.5-0.2-10.7,1.3-16.1,2.4c-2.6,0.6-5.3,1-8,1.1
			c-2.7,0-5.3,0-8,0C42,9.4,35.8,9.7,30,12c-5.6,2.1-10.9,4.9-15.8,8.4C9.4,23.8,5.2,27.9,0.8,32c-0.3,0.3-0.6,0.5-0.8,0.8
			l22.6,33.8c1.3-1,2.8-1.9,4.2-2.7c5.2-2.8,11.1-4.3,17-4.2c6.2,0.2,12.3,1.1,18.2,2.6c6.7,1.5,13.3,3.4,19.9,5.1
			c6.6,1.7,13.2,3.4,19.9,4.5c6.5,1.1,13.4,1.7,19.9,0.3h0.2c6.1-3.7,11.3-8.7,16.3-13.8c2.5-2.5,5.1-5,7.7-7.4
			c2-1.9,4.2-3.6,6.5-5.2c-6.5,0-13-1.3-19.4-2.2L129,43.2z"/>
		<path id="Path_72" class="st1" d="M139.4,21.2h0.1V21L139.4,21.2z"/>
	</g>
</g>
</svg>
