<?xml version="1.0" encoding="utf-8"?>
<!-- Generator: Adobe Illustrator 27.2.0, SVG Export Plug-In . SVG Version: 6.00 Build 0)  -->
<svg version="1.1" id="Layer_1" xmlns="http://www.w3.org/2000/svg" xmlns:xlink="http://www.w3.org/1999/xlink" x="0px" y="0px"
	 viewBox="0 0 137.4 63" style="enable-background:new 0 0 137.4 63;" xml:space="preserve">
<style type="text/css">
	.st0{fill:#FF9900;}
	.st1{fill:#FFFFFF;}
	.st2{enable-background:new    ;}
</style>
<g id="Group_1235" transform="translate(-361.41 -285)">
	<g id="Group_1220_00000125585872947728990740000009264383426312318374_" transform="translate(361.41 286.893)">
		<g id="Group_1215_00000165210847306206082160000006734321120809322395_" transform="translate(0.646 0)">
			<g id="Group_1214_00000092437129254346954780000010396544327643492750_" transform="translate(0)">
				<path id="Path_8_00000073709421311396279240000010900407784276949424_" class="st0" d="M45.5,33.4H31.7V13.1
					c2.4,0.1,4.7,0.4,7,1c0.1,4.4,2.1,9,4.3,13.8C43.9,29.7,44.7,31.5,45.5,33.4z"/>
				<path id="Path_9_00000178910131346774709220000012101416619269201569_" class="st0" d="M60.8,28.7c0,1.6-0.1,3.1-0.4,4.7H49
					c-0.9-2.4-1.9-4.7-2.9-6.9c-1.9-4.1-3.6-8.1-3.9-11.5c7.4,2.4,13.9,7.1,18.7,13.3C60.8,28.4,60.8,28.6,60.8,28.7z"/>
				<path id="Path_10_00000152942501891377503780000000781080771106964925_" class="st0" d="M17.7,5.5c1.7,1.3,2.8,3.2,3.4,5.2
					c2.4-0.5,4.9-0.9,7.4-1V-1.9c-5.4,0.3-10.7,2-15.2,5C14.8,3.6,16.4,4.5,17.7,5.5z"/>
				<path id="Path_11_00000125580563529492130430000004544963862303494031_" class="st0" d="M17.9,11.6c-0.3-1.4-1.1-2.6-2.2-3.5
					C13.9,6.8,11.9,6,9.9,5.7C4.8,10.1,1.4,16,0,22.5C4.9,17.4,11.1,13.7,17.9,11.6z"/>
				<path id="Path_12_00000038393351755787488600000008812385319760963968_" class="st0" d="M31.7,9.8c2.5,0.1,5,0.4,7.4,1
					c0.5-2.1,1.7-3.9,3.4-5.2c1.3-1.1,2.9-1.9,4.5-2.4c-4.5-3-9.8-4.7-15.2-5V9.8z"/>
				<path id="Path_13_00000080897793878231656770000012171933073270909871_" class="st0" d="M50.3,5.7C48.2,6,46.2,6.8,44.6,8
					c-1.1,0.9-1.9,2.1-2.2,3.5c6.8,2.1,12.9,5.8,17.8,10.9C58.8,16,55.3,10,50.3,5.7z"/>
			</g>
		</g>
		<path id="Path_14_00000161609976296544276100000006867128936481849011_" class="st0" d="M0.7,35c1.3-1.5,6.4-6.6,13.2-6.7l0.8-1.8
			c1.9-4.1,3.6-8.1,3.9-11.5C11.2,17.5,4.7,22.1,0,28.3v0.5c0,1.2,0.1,2.4,0.2,3.6C0.3,33.3,0.5,34.2,0.7,35z"/>
		<g id="Group_1216_00000090992062433267424570000011387833638695295380_" transform="translate(1.565 32.985)">
			<path id="Path_15_00000121270394033397735170000001386698138471766406_" class="st1" d="M0,4.6c0,0,6.7-8.2,15.3-6.1
				s10.2,8,16.9,12.9c6.7,4.9,8.4,5.9,8.4,5.9c-8.4,0.7-16.5-2.9-21.7-9.5c0,0,7.6,22.3,31.2,6.7c0,0,4.1-3,5.7-4.4s2.9-0.2-0.1,4.2
				c-3,4.4-13.3,17.7-33.5,12.9S0,4.6,0,4.6z"/>
			<path id="Path_16_00000083073555067302970090000004116329094237922214_" class="st1" d="M34.9,10.8c2-0.5,6.3-1.8,6.9-2.3
				c0.8-0.7-0.2-0.7-2.5,0c-2,0.5-4.1,0.8-6.1,1C33.7,9.8,34.3,10.3,34.9,10.8z"/>
			<path id="Path_17_00000072251026895367054090000016137450404950465169_" class="st1" d="M44.8,9.4c-2.6,1.1-5.4,2-8.1,2.7
				c0.5,0.4,1.1,0.8,1.7,1.2c2.4-0.8,4.8-1.8,7-3C46.3,9.6,46.7,8.3,44.8,9.4z"/>
			<path id="Path_18_00000018228138966292639760000009423126951275215547_" class="st1" d="M49.9,9.5c-0.9,0.9-8.9,4.8-9.6,5.2
				c0.8,0.5,1.7,1,2.6,1.5c2.7-1.5,5.4-3.2,7.8-5C52.9,9.2,50.8,8.5,49.9,9.5z"/>
		</g>
		<path id="Path_19_00000044158232065749303860000018313665995749316532_" class="st0" d="M26,33.4h3.1V13.1c-2.4,0.1-4.7,0.4-7,1
			c-0.1,4.4-2.1,9-4.3,13.8c-0.1,0.3-0.3,0.6-0.4,0.9C20.6,29.5,23.5,31.2,26,33.4z"/>
	</g>
	<g id="Group_1221_00000011727077645120028530000007825369392153638811_" transform="translate(430.075 285)">
		<g class="st2">
			<path class="st1" d="M8.8,33.4c-4.1,0-7-2-7.3-5.3H4c0.2,2,1.9,3.4,4.9,3.4c2.6,0,4-1.4,4-3.1c0-4.5-10.8-1.8-10.8-8.6
				c0-2.7,2.5-4.9,6.3-4.9c3.9,0,6.4,2,6.6,5.5h-2.3c-0.1-2-1.6-3.5-4.4-3.5c-2.4,0-3.9,1.3-3.9,2.9c0,4.9,10.7,2.3,10.8,8.6
				C15.1,31.2,12.6,33.4,8.8,33.4z"/>
			<path class="st1" d="M27,14.8c3.6,0,6.1,1.9,7.1,4.2v-4h2.3v18h-2.3v-4c-1.1,2.3-3.6,4.3-7.2,4.3c-4.9,0-8.6-3.7-8.6-9.3
				C18.4,18.4,22.1,14.8,27,14.8z M27.5,16.8c-3.8,0-6.7,2.6-6.7,7.2c0,4.6,2.9,7.3,6.7,7.3c3.7,0,6.7-2.8,6.7-7.3
				C34.2,19.6,31.2,16.8,27.5,16.8z"/>
			<path class="st1" d="M42.3,17h-2.5v-1.9h2.5v-1.3c0-3.9,1.8-5.7,6.4-5.7v2c-3.1,0-4.1,1.1-4.1,3.7v1.3h4.2V17h-4.2v16.1h-2.3V17z
				"/>
			<path class="st1" d="M60.3,33.4c-5.1,0-8.8-3.6-8.8-9.3c0-5.7,3.7-9.3,8.8-9.3c5.3,0,8.5,3.8,8.5,8.3c0,0.7,0,1.2-0.1,1.8h-15
				c0.2,4.2,3.1,6.4,6.5,6.4c3.1,0,5.1-1.6,5.8-4h2.4C67.7,30.8,64.8,33.4,60.3,33.4z M53.8,23.1h12.7c0.1-4.2-2.9-6.3-6.3-6.3
				C56.9,16.8,54,18.9,53.8,23.1z"/>
		</g>
		<g class="st2">
			<path class="st1" d="M8.4,51l-2.9-5.3H4.7V51H1.2V37H7c1.1,0,2,0.2,2.8,0.6s1.4,0.9,1.8,1.6c0.4,0.7,0.6,1.4,0.6,2.2
				c0,0.9-0.3,1.8-0.8,2.5S10,45.2,9,45.5l3.2,5.6H8.4z M4.7,43.3h2.1c0.6,0,1.1-0.2,1.4-0.5s0.5-0.7,0.5-1.3c0-0.5-0.2-1-0.5-1.3
				s-0.8-0.5-1.4-0.5H4.7V43.3z"/>
			<path class="st1" d="M17.7,39.7v2.8h4.6v2.6h-4.6v3.1h5.2V51h-8.6V37h8.6v2.7H17.7z"/>
			<path class="st1" d="M33.8,48.6h-5.2L27.8,51h-3.6l5.1-14h4l5.1,14h-3.6L33.8,48.6z M33,45.9l-1.7-5.1l-1.7,5.1H33z"/>
			<path class="st1" d="M40.2,40.3c0.6-1.1,1.4-1.9,2.5-2.5s2.3-0.9,3.7-0.9c1.7,0,3.1,0.4,4.3,1.3c1.2,0.9,2,2.1,2.4,3.6h-3.8
				c-0.3-0.6-0.7-1-1.2-1.3S46.9,40,46.3,40c-1.1,0-1.9,0.4-2.6,1.1c-0.7,0.7-1,1.7-1,2.9s0.3,2.2,1,2.9c0.7,0.7,1.5,1.1,2.6,1.1
				c0.7,0,1.2-0.2,1.8-0.5s0.9-0.8,1.2-1.3H53c-0.4,1.5-1.2,2.7-2.4,3.6c-1.2,0.9-2.6,1.3-4.3,1.3c-1.4,0-2.6-0.3-3.7-0.9
				c-1.1-0.6-1.9-1.5-2.5-2.5c-0.6-1.1-0.9-2.3-0.9-3.7S39.6,41.4,40.2,40.3z"/>
			<path class="st1" d="M67.2,37v14h-3.4v-5.8h-5.3V51h-3.4V37h3.4v5.5h5.3V37H67.2z"/>
		</g>
	</g>
</g>
</svg>
